#!OML:ASF F:\VICON\USERDATA\INSTALL\rory3\rory3.ASF
:FULLY-SPECIFIED
:DEGREES
1846
root 13.2496 18.012 -7.65803 525.872 80.5995 162.838
lowerback 12.6465 1.06501 0.038013
upperback 2.23462 1.52834 0.298501
thorax -4.7479 0.795618 0.0354949
lowerneck -9.87699 -4.10968 -12.8564
upperneck 42.7463 -1.09492 3.8382
head 17.7442 -1.11909 4.21128
rclavicle 8.34896e-015 1.59028e-014
rhumerus -29.3779 -7.73778 -83.4823
rradius 37.0931
rwrist 3.03899
rhand -14.5322 9.63027
rfingers 7.12502
rthumb 11.6159 -20.0278
lclavicle 8.34896e-015 1.59028e-014
lhumerus -37.0131 7.78748 80.7609
lradius 40.0372
lwrist -0.778661
lhand -19.6698 26.4499
lfingers 7.12502
lthumb 6.65857 56.3252
rfemur -17.8751 -4.06431 22.504
rtibia 32.6212
rfoot -14.0244 -10.9011
rtoes 17.8416
lfemur -18.9298 -7.74082 -21.392
ltibia 30.0299
lfoot -10.529 -10.6539
ltoes -11.0951
1847
root 13.1972 18.0135 -7.64302 526.969 80.1638 163.826
lowerback 12.7764 0.961744 0.0081436
upperback 2.24225 1.3966 0.420826
thorax -4.81502 0.732713 0.199536
lowerneck -9.87701 -4.0843 -13.188
upperneck 42.6388 -1.01226 3.93477
head 17.6822 -1.12424 4.32346
rclavicle 1.59028e-014 -1.66979e-014
rhumerus -29.1868 -7.2414 -83.3901
rradius 37.2307
rwrist 3.06444
rhand -14.1194 9.70624
rfingers 7.12502
rthumb 12.014 -19.9289
lclavicle 1.59028e-014 -1.66979e-014
lhumerus -37.1749 7.97424 80.7686
lradius 40.0149
lwrist -0.835176
lhand -19.8061 26.5282
lfingers 7.12502
lthumb 6.52704 56.4077
rfemur -18.1636 -4.42204 22.6128
rtibia 32.5771
rfoot -13.8887 -11.0523
rtoes 17.9758
lfemur -19.4078 -8.05603 -21.1393
ltibia 30.5398
lfoot -10.7313 -11.4644
ltoes -12.5933
1848
root 13.1537 18.0172 -7.63616 527.665 79.9605 164.56
lowerback 12.9509 1.06631 0.17427
upperback 2.28155 1.56062 0.412215
thorax -4.86604 0.811997 0.0661922
lowerneck -9.70791 -4.16595 -13.1324
upperneck 42.5275 -1.16038 3.90047
head 17.5897 -1.17109 4.26543
rclavicle 1.64991e-014 2.38542e-014
rhumerus -29.1526 -7.14889 -83.3544
rradius 37.4345
rwrist 2.69457
rhand -14.4935 9.36693
rfingers 7.12502
rthumb 11.6532 -20.289
lclavicle 1.64991e-014 2.38542e-014
lhumerus -37.2767 7.57231 80.8492
lradius 39.9773
lwrist -0.731293
lhand -19.8009 26.7605
lfingers 7.12502
lthumb 6.53203 56.6398
rfemur -18.2306 -4.50015 22.6927
rtibia 32.477
rfoot -13.8376 -11.1455
rtoes 18.8122
lfemur -19.6468 -8.37987 -20.9237
ltibia 31.1919
lfoot -11.1127 -11.5906
ltoes -14.3911
1849
root 13.1176 18.0186 -7.63528 527.984 79.8763 164.963
lowerback 13.0356 1.29064 0.436399
upperback 2.32449 1.88772 0.265194
thorax -4.85458 0.968969 -0.292135
lowerneck -9.43188 -4.31048 -12.689
upperneck 42.5214 -1.47311 3.80535
head 17.5365 -1.22735 4.08959
rclavicle -1.07344e-014 -1.82882e-014
rhumerus -29.194 -7.64118 -83.303
rradius 37.5499
rwrist 2.63678
rhand -15.1628 9.25857
rfingers 7.12502
rthumb 11.0077 -20.4328
lclavicle -1.07344e-014 -1.82882e-014
lhumerus -37.3339 6.90691 80.8697
lradius 39.7969
lwrist -0.780071
lhand -20.0399 26.7826
lfingers 7.12502
lthumb 6.30132 56.6689
rfemur -18.1874 -4.2655 22.7197
rtibia 32.3199
rfoot -13.7751 -11.4221
rtoes 19.7771
lfemur -19.7687 -8.59267 -20.8086
ltibia 31.9923
lfoot -11.6906 -11.1946
ltoes -16.2051
1850
root 13.0817 18.0252 -7.6376 528.578 79.8102 165.628
lowerback 13.0748 1.41574 0.683612
upperback 2.36944 2.08628 0.207333
thorax -4.81673 1.06385 -0.525814
lowerneck -9.36644 -4.45074 -12.5655
upperneck 42.6465 -1.69044 3.80639
head 17.6178 -1.29113 4.04096
rclavicle 1.32192e-014 -2.3059e-014
rhumerus -29.1792 -7.72435 -83.2343
rradius 37.6565
rwrist 2.70506
rhand -15.4166 9.50264
rfingers 7.12502
rthumb 10.7629 -20.2016
lclavicle 1.32192e-014 -2.3059e-014
lhumerus -37.5129 6.67975 80.8276
lradius 39.6488
lwrist -1.06823
lhand -20.4353 26.8924
lfingers 7.12502
lthumb 5.91953 56.7897
rfemur -18.1292 -4.23135 22.7958
rtibia 32.1051
rfoot -13.6407 -11.5433
rtoes 19.9152
lfemur -19.8848 -8.76828 -20.6387
ltibia 32.9136
lfoot -12.1521 -10.6839
ltoes -16.2355
1851
root 13.0429 18.0379 -7.64038 528.824 79.8217 165.881
lowerback 13.0658 1.52755 0.892426
upperback 2.41316 2.26248 0.176326
thorax -4.75448 1.14866 -0.704295
lowerneck -9.26053 -4.57645 -12.7079
upperneck 42.665 -1.88417 3.91601
head 17.6338 -1.37477 4.08776
rclavicle 1.17283e-014 7.15625e-015
rhumerus -29.0733 -7.85301 -82.9877
rradius 37.6354
rwrist 3.59892
rhand -14.8121 10.2918
rfingers 7.12502
rthumb 11.3459 -19.3813
lclavicle 1.17283e-014 7.15625e-015
lhumerus -37.7206 6.65837 80.7478
lradius 39.5853
lwrist -1.3622
lhand -20.0658 26.7097
lfingers 7.12502
lthumb 6.27631 56.5967
rfemur -18.1498 -4.43554 22.8118
rtibia 31.8532
rfoot -13.42 -11.2929
rtoes 19.889
lfemur -20.0313 -8.89926 -20.5113
ltibia 33.9371
lfoot -12.4214 -10.0958
ltoes -15.1677
1852
root 13.005 18.0503 -7.64148 529.063 79.8451 166.123
lowerback 13.0176 1.62225 1.05374
upperback 2.46181 2.40966 0.161991
thorax -4.66721 1.22043 -0.831913
lowerneck -9.05681 -4.57644 -12.7068
upperneck 42.5706 -1.91553 3.93798
head 17.5281 -1.37696 4.08727
rclavicle -1.74931e-014 1.66979e-014
rhumerus -28.9106 -8.12881 -82.7239
rradius 37.5395
rwrist 4.77615
rhand -14.2052 10.9185
rfingers 7.12502
rthumb 11.9313 -18.7215
lclavicle -1.74931e-014 1.66979e-014
lhumerus -37.8987 6.79399 80.6393
lradius 39.4457
lwrist -1.73921
lhand -19.4514 26.423
lfingers 7.12502
lthumb 6.86944 56.2915
rfemur -18.1897 -4.71519 22.8416
rtibia 31.6071
rfoot -13.1031 -10.9689
rtoes 19.852
lfemur -20.1367 -8.98511 -20.4002
ltibia 35.0491
lfoot -12.6129 -9.30042
ltoes -14.4092
1853
root 12.9707 18.0607 -7.64241 529.213 79.8139 166.357
lowerback 13.007 1.66572 1.0258
upperback 2.52668 2.46942 0.238824
thorax -4.59677 1.25275 -0.744048
lowerneck -8.97824 -4.52014 -12.6067
upperneck 42.6032 -1.78136 3.78983
head 17.5062 -1.31921 4.02478
rclavicle 6.95746e-015 5.56597e-015
rhumerus -28.7555 -7.2136 -82.9983
rradius 37.7372
rwrist 3.16907
rhand -15.4291 10.0053
rfingers 7.12502
rthumb 10.7509 -19.6996
lclavicle 6.95746e-015 5.56597e-015
lhumerus -38.1355 7.04804 80.6019
lradius 39.286
lwrist -1.81302
lhand -19.2202 26.244
lfingers 7.12502
lthumb 7.09262 56.1052
rfemur -18.1237 -4.97289 22.8449
rtibia 31.3968
rfoot -12.8795 -10.728
rtoes 20.1011
lfemur -20.1211 -8.99043 -20.3329
ltibia 36.2577
lfoot -12.7785 -8.47358
ltoes -14.0626
1854
root 12.9301 18.0668 -7.64117 528.816 79.6282 166.07
lowerback 13.1213 1.71524 0.861474
upperback 2.56392 2.51936 0.299967
thorax -4.62934 1.28077 -0.599439
lowerneck -8.93011 -4.5693 -12.553
upperneck 42.7119 -1.79124 3.66945
head 17.5594 -1.325 3.96476
rclavicle 1.39149e-014 -1.82882e-014
rhumerus -28.5596 -7.69417 -82.4427
rradius 37.535
rwrist 5.46996
rhand -13.8392 10.2548
rfingers 7.12502
rthumb 12.2842 -19.3644
lclavicle 1.39149e-014 -1.82882e-014
lhumerus -38.4586 6.97768 80.6576
lradius 39.2418
lwrist -1.54766
lhand -19.3323 26.3445
lfingers 7.12502
lthumb 6.98437 56.2093
rfemur -18.0746 -5.45808 22.7736
rtibia 31.2158
rfoot -12.5661 -10.6407
rtoes 19.2559
lfemur -20.1069 -8.96339 -20.4168
ltibia 37.5221
lfoot -12.831 -7.69596
ltoes -14.0002
1855
root 12.8838 18.0665 -7.64019 528.821 79.3116 166.207
lowerback 13.3179 1.74917 0.940655
upperback 2.58225 2.57806 0.262915
thorax -4.71193 1.30886 -0.699477
lowerneck -8.66225 -4.64087 -12.4191
upperneck 42.6223 -1.94498 3.62384
head 17.4496 -1.36256 3.88933
rclavicle -5.36719e-015 6.36111e-015
rhumerus -28.4017 -8.15524 -82.0428
rradius 37.6719
rwrist 7.56764
rhand -11.575 9.19941
rfingers 7.12502
rthumb 14.4665 -20.2763
lclavicle -5.36719e-015 6.36111e-015
lhumerus -38.7593 6.5627 80.6899
lradius 39.204
lwrist -1.32899
lhand -19.5214 26.5935
lfingers 7.12502
lthumb 6.80183 56.4642
rfemur -18.063 -6.23191 22.8129
rtibia 31.0184
rfoot -12.049 -10.6831
rtoes 16.6214
lfemur -20.0916 -9.05622 -20.4868
ltibia 38.814
lfoot -12.9079 -6.74938
ltoes -15.2885
